<mxfile host="app.diagrams.net" modified="2024-06-02T07:32:01.446Z" agent="Mozilla/5.0 (Windows NT 10.0; Win64; x64) AppleWebKit/537.36 (KHTML, like Gecko) Chrome/122.0.0.0 Safari/537.36" etag="JTfIo1KEGlQMBwsOEoAm" version="24.4.13" type="github">
  <diagram name="Page-1" id="c7558073-3199-34d8-9f00-42111426c3f3">
    <mxGraphModel dx="1434" dy="738" grid="1" gridSize="10" guides="1" tooltips="1" connect="1" arrows="1" fold="1" page="0" pageScale="1" pageWidth="826" pageHeight="1169" background="none" math="0" shadow="0">
      <root>
        <mxCell id="0" />
        <mxCell id="1" parent="0" />
        <mxCell id="uOPIbgVp8fAWNKFELk3y-98" value="" style="edgeStyle=orthogonalEdgeStyle;rounded=0;orthogonalLoop=1;jettySize=auto;html=1;" edge="1" parent="1" source="uOPIbgVp8fAWNKFELk3y-96" target="uOPIbgVp8fAWNKFELk3y-97">
          <mxGeometry relative="1" as="geometry" />
        </mxCell>
        <mxCell id="uOPIbgVp8fAWNKFELk3y-96" value="发出访问" style="rounded=1;whiteSpace=wrap;html=1;fillColor=#647687;strokeColor=#314354;fontColor=#ffffff;" vertex="1" parent="1">
          <mxGeometry x="170" y="290" width="120" height="60" as="geometry" />
        </mxCell>
        <mxCell id="uOPIbgVp8fAWNKFELk3y-97" value="&lt;font color=&quot;#1a1a1a&quot;&gt;&lt;b&gt;https://xxxx.123.us.kg:33333&lt;/b&gt;&lt;/font&gt;" style="whiteSpace=wrap;html=1;rounded=1;glass=0;sketch=1;curveFitting=1;jiggle=2;fillColor=#647687;fontColor=#ffffff;strokeColor=#314354;" vertex="1" parent="1">
          <mxGeometry x="390" y="290" width="180" height="60" as="geometry" />
        </mxCell>
        <mxCell id="uOPIbgVp8fAWNKFELk3y-99" value="" style="curved=1;endArrow=classic;html=1;rounded=0;exitX=0.5;exitY=0;exitDx=0;exitDy=0;entryX=0.5;entryY=0;entryDx=0;entryDy=0;" edge="1" parent="1" source="uOPIbgVp8fAWNKFELk3y-97" target="uOPIbgVp8fAWNKFELk3y-100">
          <mxGeometry width="50" height="50" relative="1" as="geometry">
            <mxPoint x="390" y="400" as="sourcePoint" />
            <mxPoint x="710" y="280" as="targetPoint" />
            <Array as="points">
              <mxPoint x="530" y="240" />
              <mxPoint x="550" y="210" />
              <mxPoint x="590" y="200" />
              <mxPoint x="620" y="190" />
              <mxPoint x="640" y="210" />
              <mxPoint x="700" y="200" />
            </Array>
          </mxGeometry>
        </mxCell>
        <mxCell id="uOPIbgVp8fAWNKFELk3y-100" value="&lt;b&gt;https://xxxx.123.dynv6.net:8359&lt;/b&gt;" style="whiteSpace=wrap;html=1;rounded=1;glass=0;sketch=1;curveFitting=1;jiggle=2;fillColor=#fad7ac;strokeColor=#b46504;" vertex="1" parent="1">
          <mxGeometry x="620" y="290" width="200" height="60" as="geometry" />
        </mxCell>
        <mxCell id="uOPIbgVp8fAWNKFELk3y-101" value="&lt;b&gt;&lt;u&gt;&lt;font style=&quot;font-size: 20px;&quot;&gt;重定向&lt;/font&gt;&lt;/u&gt;&lt;/b&gt;" style="whiteSpace=wrap;html=1;fillColor=none;strokeColor=none;" vertex="1" parent="1">
          <mxGeometry x="560" y="190" width="120" height="60" as="geometry" />
        </mxCell>
        <mxCell id="uOPIbgVp8fAWNKFELk3y-105" value="" style="endArrow=classic;html=1;rounded=0;" edge="1" parent="1">
          <mxGeometry width="50" height="50" relative="1" as="geometry">
            <mxPoint x="719.5" y="350" as="sourcePoint" />
            <mxPoint x="719.5" y="410" as="targetPoint" />
          </mxGeometry>
        </mxCell>
        <mxCell id="uOPIbgVp8fAWNKFELk3y-106" value="&lt;b&gt;http://127.0.0.1:2440&lt;/b&gt;" style="whiteSpace=wrap;html=1;rounded=1;glass=0;sketch=1;curveFitting=1;jiggle=2;fillColor=#fad7ac;strokeColor=#b46504;" vertex="1" parent="1">
          <mxGeometry x="620" y="410" width="200" height="60" as="geometry" />
        </mxCell>
        <mxCell id="uOPIbgVp8fAWNKFELk3y-107" value="&lt;b&gt;&lt;u&gt;&lt;font style=&quot;font-size: 16px;&quot;&gt;反向代理&lt;/font&gt;&lt;/u&gt;&lt;/b&gt;" style="whiteSpace=wrap;html=1;fillColor=none;strokeColor=none;" vertex="1" parent="1">
          <mxGeometry x="660" y="350" width="120" height="60" as="geometry" />
        </mxCell>
      </root>
    </mxGraphModel>
  </diagram>
</mxfile>
